<svg xmlns="http://www.w3.org/2000/svg" version="1.1" xmlns:xlink="http://www.w3.org/1999/xlink" width="1000" height="1000"><style>
    #light-icon {
      display: inline;
    }
    #dark-icon {
      display: none;
    }

    @media (prefers-color-scheme: dark) {
      #light-icon {
        display: none;
      }
      #dark-icon {
        display: inline;
      }
    }
  </style><g id="light-icon"><svg xmlns="http://www.w3.org/2000/svg" version="1.1" xmlns:xlink="http://www.w3.org/1999/xlink" width="1000" height="1000"><g><g transform="matrix(41.666666666666664,0,0,41.666666666666664,0,0)"><svg xmlns="http://www.w3.org/2000/svg" version="1.1" xmlns:xlink="http://www.w3.org/1999/xlink" width="24" height="24"><svg xmlns="http://www.w3.org/2000/svg" width="24" height="24" viewBox="0 0 24 24" fill="none" stroke="black" stroke-width="3" stroke-linecap="round" stroke-linejoin="round">
	<path d="M14 9a2 2 0 0 1-2 2H6l-4 4V4c0-1.1.9-2 2-2h8a2 2 0 0 1 2 2z">
	</path>
	<path d="M18 9h2a2 2 0 0 1 2 2v11l-4-4h-6a2 2 0 0 1-2-2v-1">
	</path>
</svg></svg></g></g></svg></g><g id="dark-icon"><svg xmlns="http://www.w3.org/2000/svg" version="1.1" xmlns:xlink="http://www.w3.org/1999/xlink" width="1000" height="1000"><g><g transform="matrix(41.666666666666664,0,0,41.666666666666664,0,0)"><svg xmlns="http://www.w3.org/2000/svg" version="1.1" xmlns:xlink="http://www.w3.org/1999/xlink" width="24" height="24"><svg xmlns="http://www.w3.org/2000/svg" width="24" height="24" viewBox="0 0 24 24" fill="none" stroke="white" stroke-width="3" stroke-linecap="round" stroke-linejoin="round">
	<path d="M14 9a2 2 0 0 1-2 2H6l-4 4V4c0-1.1.9-2 2-2h8a2 2 0 0 1 2 2z">
	</path>
	<path d="M18 9h2a2 2 0 0 1 2 2v11l-4-4h-6a2 2 0 0 1-2-2v-1">
	</path>
</svg></svg></g></g></svg></g></svg>