<svg xmlns="http://www.w3.org/2000/svg" height="20" viewBox="0 0 1658 438"><path fill="#666" d="M445.436 346.283H44.123v.115l-.058-.115-41.229 68.62h483.772l-41.172-68.505zM76.774 334.847h63.703V183.768H76.774zm91.665 0h63.646V183.768h-63.646zm91.665 0h63.645V183.768h-63.587zm91.665 0h63.645V183.768H351.77zM244.15 73.347l104.074 52.38H140.076zm0-52.494-.171-.115-.058.229L35.774 125.784h-.515v41.573h21.33l.171.343.686-.343h373.408l.686.343.172-.343h21.158v-41.115l.171-.23-.114-.056v-.172h-.4L244.379 20.967l-.114-.229zm566.116 143.244H795.34L838.4 46.871h14.638l43.06 117.226H881.23L846.177 65.4h-.915zm5.432-45.804h60.043v12.58h-60.043zm129.578-30.707H899.7V76.149h45.575zm-32.309-32.538h13.553v83.831q0 5.719 1.658 8.578a8.58 8.58 0 0 0 4.346 3.831q2.688.915 5.718.915 2.173 0 3.603-.229l2.287-.457 2.745 12.123a29 29 0 0 1-3.831 1.029 27 27 0 0 1-6.233.572q-5.719 0-11.208-2.46a22.9 22.9 0 0 1-9.035-7.49q-3.546-5.09-3.546-12.752zm68.048 56.154v52.895H967.52V46.871h13.495v43.002h1.144q3.088-6.805 9.264-10.865 6.29-4.003 16.583-4.003 9.035 0 15.783 3.603 6.747 3.545 10.464 10.922 3.774 7.377 3.774 18.699v55.868h-13.495v-54.953q0-10.465-5.432-16.24-5.376-5.719-14.925-5.719-6.634 0-11.952 2.745a20.2 20.2 0 0 0-8.234 8.177q-2.974 5.376-2.974 13.095m118.656 54.725q-12.752 0-21.958-5.604a37.74 37.74 0 0 1-14.125-15.783q-4.917-10.235-4.917-23.73t4.917-23.846a38.9 38.9 0 0 1 13.839-16.126q8.92-5.833 20.872-5.833 6.862 0 13.552 2.288t12.18 7.434 8.75 13.495q3.316 8.463 3.316 20.757v5.719h-67.82v-11.666h54.039q0-7.434-2.974-13.266a22.47 22.47 0 0 0-8.349-9.264 23.45 23.45 0 0 0-12.694-3.374q-8.12 0-14.01 4.003-5.833 4.003-8.978 10.293a30.3 30.3 0 0 0-3.145 13.667v7.777q0 9.95 3.43 16.869 3.489 6.862 9.722 10.465 6.176 3.602 14.296 3.602 5.375 0 9.721-1.487a20 20 0 0 0 7.434-4.574q3.145-3.088 4.86-7.663l13.095 3.66q-2.058 6.633-6.976 11.665a33.7 33.7 0 0 1-12.008 7.777 44.6 44.6 0 0 1-16.069 2.745m70.507-54.725v52.895h-13.552V76.15h13.038v13.724h1.143q3.145-6.69 9.435-10.75 6.29-4.118 16.24-4.118 8.921 0 15.669 3.66 6.69 3.603 10.407 10.98t3.717 18.584v55.868h-13.495v-54.953q0-10.35-5.375-16.183-5.433-5.833-14.81-5.833-6.463 0-11.552 2.86-5.032 2.744-8.006 8.177-2.859 5.375-2.859 13.037m106.704 54.954a36.3 36.3 0 0 1-15.21-3.145 26.1 26.1 0 0 1-10.865-9.207q-4.003-6.061-4.003-14.696 0-7.548 3.03-12.237 2.974-4.747 7.95-7.434t10.978-4.003q6.062-1.372 12.238-2.173 8.005-1.03 12.98-1.544 5.032-.572 7.32-1.887 2.344-1.315 2.344-4.575v-.457q0-8.463-4.574-13.152-4.632-4.747-13.953-4.747-9.721 0-15.211 4.232t-7.72 9.035l-12.809-4.575q3.431-8.005 9.15-12.466 5.775-4.574 12.58-6.29a53.8 53.8 0 0 1 13.552-1.83q4.232 0 9.722 1.03 5.546.972 10.693 4.06 5.204 3.088 8.635 9.32 3.43 6.29 3.43 16.698v57.984h-13.495v-11.894h-.686a24 24 0 0 1-4.575 6.119 26.9 26.9 0 0 1-8.577 5.546q-5.261 2.288-12.924 2.288m2.059-12.123q8.006 0 13.495-3.145 5.547-3.145 8.35-8.12 2.858-5.032 2.858-10.522v-12.352q-.858 1.03-3.774 1.887-2.859.8-6.633 1.43a280 280 0 0 1-12.924 1.715 54 54 0 0 0-9.892 2.23 17.5 17.5 0 0 0-7.32 4.575q-2.745 2.917-2.745 8.063 0 7.09 5.204 10.693 5.261 3.546 13.381 3.546M819.587 379.107h-14.182V261.88h14.182zm40.2-52.895v52.895h-13.553v-87.948h13.095v13.724h1.144a25 25 0 0 1 9.378-10.75q6.29-4.118 16.24-4.118 8.92 0 15.668 3.66 6.69 3.602 10.408 10.979 3.717 7.32 3.717 18.584v55.869h-13.496v-54.954q0-10.35-5.375-16.182-5.432-5.833-14.81-5.833-6.462 0-11.551 2.859-5.033 2.745-8.006 8.12t-2.86 13.095m119.057-23.617h-45.576V291.16h45.576zm-32.31-32.537h13.496v83.888q0 5.718 1.716 8.577a8.58 8.58 0 0 0 4.288 3.832q2.688.915 5.719.915 2.23 0 3.66-.229l2.287-.458 2.745 12.123a29 29 0 0 1-3.832 1.03 27 27 0 0 1-6.29.572q-5.718 0-11.208-2.46a22.9 22.9 0 0 1-9.035-7.49q-3.545-5.09-3.545-12.752zm88.578 110.879q-12.752 0-21.958-5.604a37.74 37.74 0 0 1-14.125-15.783q-4.918-10.236-4.918-23.731t4.918-23.846a38.9 38.9 0 0 1 13.839-16.125q8.977-5.833 20.872-5.833 6.862 0 13.552 2.287t12.18 7.434q5.547 5.147 8.75 13.495 3.316 8.464 3.316 20.758v5.718h-67.82v-11.665h54.039q0-7.434-2.917-13.267a22.47 22.47 0 0 0-8.406-9.263 23.45 23.45 0 0 0-12.694-3.374q-8.12 0-14.01 4.003-5.833 4.002-8.978 10.293a30.3 30.3 0 0 0-3.145 13.666v7.777q0 9.95 3.43 16.87 3.489 6.862 9.722 10.464 6.176 3.545 14.353 3.603 5.318 0 9.607-1.487a20 20 0 0 0 7.49-4.575q3.146-3.088 4.919-7.662l13.037 3.602q-2.058 6.633-6.976 11.723a33.7 33.7 0 0 1-12.008 7.777 44.6 44.6 0 0 1-16.069 2.745m70.421-1.91h-13.438v-117.18h13.438zm38.256 0h-13.438v-117.18h13.438zm24.846-87.868h13.496v87.948h-13.496zm6.862-14.697a9.72 9.72 0 0 1-6.862-2.687 8.58 8.58 0 0 1-2.745-6.462q0-3.774 2.802-6.462a9.55 9.55 0 0 1 6.805-2.687 9.44 9.44 0 0 1 6.748 2.687 8.58 8.58 0 0 1 2.859 6.462 8.58 8.58 0 0 1-2.86 6.462 9.44 9.44 0 0 1-6.747 2.687m66.905 137.47q-9.779 0-16.87-2.517a35.63 35.63 0 0 1-19.099-15.153l10.75-7.549q1.83 2.402 4.576 5.49 2.859 3.145 7.72 5.432 4.917 2.345 12.923 2.345 10.636 0 17.555-5.146t6.92-16.126v-17.841h-1.144q-1.487 2.401-4.232 5.947a24 24 0 0 1-7.777 6.233q-5.032 2.687-13.61 2.687a36.6 36.6 0 0 1-19.156-5.032q-8.406-5.032-13.324-14.639-4.86-9.664-4.86-23.445 0-13.495 4.746-23.445 4.746-10.122 13.21-15.611a34.9 34.9 0 0 1 19.556-5.547q8.578 0 13.667 2.86 5.146 2.801 7.777 6.404 2.745 3.545 4.231 5.832h1.373V291.16h13.095v90.464q0 11.322-5.147 18.413a29.56 29.56 0 0 1-13.78 10.522 50.9 50.9 0 0 1-19.1 3.373m-.458-48.32q8.12 0 13.724-3.717t8.578-10.75 2.859-16.698q0-9.492-2.86-16.811a25.16 25.16 0 0 0-8.462-11.38q-5.604-4.117-13.839-4.117-8.577 0-14.296 4.346a26.5 26.5 0 0 0-8.577 11.665 45.8 45.8 0 0 0-2.802 16.297q0 9.15 2.86 16.183 2.916 7.034 8.577 11.037 5.718 3.945 14.238 3.945m100.071 15.326q-12.694 0-21.958-5.604a37.74 37.74 0 0 1-14.124-15.783q-4.918-10.236-4.918-23.731t4.918-23.846a38.9 38.9 0 0 1 13.895-16.125q8.92-5.833 20.815-5.833 6.862 0 13.552 2.287 6.748 2.288 12.238 7.434t8.749 13.495q3.26 8.464 3.26 20.758v5.718h-67.82v-11.665h54.038a28.9 28.9 0 0 0-2.916-13.267 22.87 22.87 0 0 0-8.406-9.263 23.45 23.45 0 0 0-12.695-3.374q-8.063 0-13.953 4.003t-9.035 10.293a30.3 30.3 0 0 0-3.145 13.666v7.777q0 9.95 3.431 16.87 3.488 6.862 9.721 10.464 6.176 3.603 14.353 3.603 5.318 0 9.607-1.487a20 20 0 0 0 7.548-4.575q3.145-3.088 4.86-7.662l13.039 3.602q-2.059 6.633-6.92 11.723a33.7 33.7 0 0 1-12.008 7.777 44.6 44.6 0 0 1-16.126 2.745m70.507-54.725v52.895h-13.495V291.16h13.038v13.724h1.144q3.088-6.69 9.378-10.75 6.29-4.118 16.297-4.118 8.92 0 15.611 3.66 6.69 3.602 10.407 10.979 3.717 7.32 3.717 18.584v55.869h-13.495v-54.954q0-10.35-5.375-16.182t-14.81-5.833q-6.462 0-11.552 2.859-5.032 2.745-7.948 8.12t-2.917 13.095m116.54 54.725q-12.409 0-21.33-5.833a38.03 38.03 0 0 1-13.723-16.126q-4.804-10.236-4.804-23.445 0-13.381 4.918-23.617a38.9 38.9 0 0 1 13.839-16.068q8.977-5.833 20.871-5.833 9.264 0 16.698 3.43t12.237 9.608q4.746 6.176 5.89 14.41h-13.552a20.8 20.8 0 0 0-6.862-10.636q-5.261-4.69-14.182-4.69-7.891 0-13.838 4.118a26.9 26.9 0 0 0-9.264 11.551q-3.26 7.377-3.26 17.327 0 10.178 3.203 17.726 3.26 7.549 9.15 11.78 6.004 4.175 14.01 4.175 5.26 0 9.549-1.83a19.61 19.61 0 0 0 11.494-13.553h13.552a30.9 30.9 0 0 1-5.718 14.067 31.45 31.45 0 0 1-11.837 9.836q-7.32 3.603-17.04 3.603m91.207 0q-12.695 0-21.959-5.604a37.74 37.74 0 0 1-14.124-15.783q-4.918-10.236-4.918-23.731t4.918-23.846a38.9 38.9 0 0 1 13.838-16.125q8.978-5.833 20.872-5.833 6.862 0 13.553 2.287t12.237 7.434q5.49 5.147 8.75 13.495 3.259 8.464 3.259 20.758v5.718h-67.82v-11.722h54.038a28.9 28.9 0 0 0-2.916-13.267 22.87 22.87 0 0 0-8.406-9.15 23.45 23.45 0 0 0-12.695-3.43q-8.063 0-13.952 4.003t-9.035 10.293a30.3 30.3 0 0 0-3.145 13.666v7.777q0 9.95 3.43 16.87 3.489 6.862 9.722 10.464 6.175 3.545 14.353 3.603 5.318 0 9.664-1.487a20 20 0 0 0 7.434-4.575q3.202-3.088 4.917-7.662l13.038 3.602q-2.058 6.633-6.919 11.723a33.7 33.7 0 0 1-12.009 7.777 44.6 44.6 0 0 1-16.125 2.745M629.967 2.84h17.898v430.02h-17.898z"/></svg>