<svg xmlns="http://www.w3.org/2000/svg" xmlns:xlink="http://www.w3.org/1999/xlink" height="20" viewBox="0 0 1666 446">
  <defs>
    <path id="a" fill="#666" d="M.5 4.36h-1v-8.72h1z"/>
  </defs>
  <g transform="translate(-3926.238 -2752.831)scale(5.71834)">
    <path fill="#666" d="M765.2 542.66h-70.18v.02l-.01-.02-7.21 12h84.6l-7.2-11.98zm-64.47-2h11.14v-26.42h-11.14zm16.03 0h11.13v-26.42h-11.13zm16.03 0h11.13v-26.42H732.8zm16.03 0h11.13v-26.42h-11.13zM730 494.93l18.2 9.16h-36.4zm0-9.18-.03-.02-.01.04-36.4 18.33h-.09v7.27h3.73l.03.06.12-.06h65.3l.12.06.03-.06h3.7v-7.19l.03-.04-.02-.01v-.03h-.07l-36.4-18.33-.02-.04zm99 25.05h-2.61l7.53-20.5h2.56l7.53 20.5h-2.6l-6.13-17.26h-.16zm.95-8.01h10.5v2.2h-10.5zm22.66-5.37h-7.97v-2h7.97zm-5.65-5.69h2.37v14.66q0 1 .29 1.5a1.5 1.5 0 0 0 .76.67q.47.16 1 .16.38 0 .63-.04l.4-.08.48 2.12a5 5 0 0 1-.67.18 4.7 4.7 0 0 1-1.09.1q-1 0-1.96-.43a4 4 0 0 1-1.58-1.31q-.62-.89-.62-2.23zm11.9 9.82v9.25h-2.36v-20.5h2.36v7.52h.2q.54-1.19 1.62-1.9 1.1-.7 2.9-.7 1.58 0 2.76.63 1.18.62 1.83 1.91.66 1.29.66 3.27v9.77h-2.36v-9.61q0-1.83-.95-2.84-.94-1-2.61-1-1.16 0-2.09.48a3.53 3.53 0 0 0-1.44 1.43q-.52.94-.52 2.29m20.75 9.57q-2.23 0-3.84-.98a6.6 6.6 0 0 1-2.47-2.76q-.86-1.79-.86-4.15t.86-4.17a6.8 6.8 0 0 1 2.42-2.82q1.56-1.02 3.65-1.02 1.2 0 2.37.4t2.13 1.3 1.53 2.36q.58 1.48.58 3.63v1h-11.86v-2.04h9.45q0-1.3-.52-2.32a3.93 3.93 0 0 0-1.46-1.62 4.1 4.1 0 0 0-2.22-.59q-1.42 0-2.45.7-1.02.7-1.57 1.8a5.3 5.3 0 0 0-.55 2.39v1.36q0 1.74.6 2.95.61 1.2 1.7 1.83 1.08.63 2.5.63.94 0 1.7-.26a3.5 3.5 0 0 0 1.3-.8q.55-.54.85-1.34l2.29.64q-.36 1.16-1.22 2.04a5.9 5.9 0 0 1-2.1 1.36 7.8 7.8 0 0 1-2.81.48m12.33-9.57v9.25h-2.37v-15.38h2.28v2.4h.2q.55-1.17 1.65-1.88 1.1-.72 2.84-.72 1.56 0 2.74.64 1.17.63 1.82 1.92t.65 3.25v9.77h-2.36v-9.61q0-1.81-.94-2.83-.95-1.02-2.59-1.02-1.13 0-2.02.5-.88.48-1.4 1.43-.5.94-.5 2.28m18.66 9.61a6.35 6.35 0 0 1-2.66-.55 4.56 4.56 0 0 1-1.9-1.61q-.7-1.06-.7-2.57 0-1.32.53-2.14.52-.83 1.39-1.3t1.92-.7q1.06-.24 2.14-.38 1.4-.18 2.27-.27.88-.1 1.28-.33.41-.23.41-.8v-.08q0-1.48-.8-2.3-.81-.83-2.44-.83-1.7 0-2.66.74t-1.35 1.58l-2.24-.8q.6-1.4 1.6-2.18 1.01-.8 2.2-1.1a9.4 9.4 0 0 1 2.37-.32q.74 0 1.7.18.97.17 1.87.71.91.54 1.51 1.63.6 1.1.6 2.92v10.14h-2.36v-2.08h-.12a4.2 4.2 0 0 1-.8 1.07 4.7 4.7 0 0 1-1.5.97q-.92.4-2.26.4m.36-2.12q1.4 0 2.36-.55.97-.55 1.46-1.42.5-.88.5-1.84v-2.16q-.15.18-.66.33-.5.14-1.16.25a49 49 0 0 1-2.26.3 9.4 9.4 0 0 0-1.73.39 3.06 3.06 0 0 0-1.28.8q-.48.51-.48 1.41 0 1.24.91 1.87.92.62 2.34.62m-80.33 39.36h-2.48v-20.5h2.48zm7.03-9.25v9.25h-2.37v-15.38h2.29v2.4h.2a4.37 4.37 0 0 1 1.64-1.88q1.1-.72 2.84-.72 1.56 0 2.74.64 1.17.63 1.82 1.92.65 1.28.65 3.25v9.77h-2.36v-9.61q0-1.81-.94-2.83-.95-1.02-2.59-1.02-1.13 0-2.02.5-.88.48-1.4 1.42t-.5 2.29m20.82-4.13h-7.97v-2h7.97zm-5.65-5.69h2.36V544q0 1 .3 1.5a1.5 1.5 0 0 0 .75.67q.47.16 1 .16.39 0 .64-.04l.4-.08.48 2.12a5 5 0 0 1-.67.18 4.7 4.7 0 0 1-1.1.1q-1 0-1.96-.43a4 4 0 0 1-1.58-1.31q-.62-.89-.62-2.23zm15.49 19.39q-2.23 0-3.84-.98a6.6 6.6 0 0 1-2.47-2.76q-.86-1.79-.86-4.15t.86-4.17a6.8 6.8 0 0 1 2.42-2.82q1.57-1.02 3.65-1.02 1.2 0 2.37.4t2.13 1.3q.97.9 1.53 2.36.58 1.48.58 3.63v1h-11.86v-2.04h9.45q0-1.3-.51-2.32a3.93 3.93 0 0 0-1.47-1.62 4.1 4.1 0 0 0-2.22-.59q-1.42 0-2.45.7-1.02.7-1.57 1.8a5.3 5.3 0 0 0-.55 2.39v1.36q0 1.74.6 2.95.61 1.2 1.7 1.83 1.08.62 2.51.63.93 0 1.68-.26a3.5 3.5 0 0 0 1.31-.8q.55-.54.86-1.34l2.28.63q-.36 1.16-1.22 2.05a5.9 5.9 0 0 1-2.1 1.36 7.8 7.8 0 0 1-2.81.48"/>
    <use xmlns:xlink="http://www.w3.org/1999/xlink" xlink:href="#a" transform="translate(879.46 538.14)scale(2.35)"/>
    <use xmlns:xlink="http://www.w3.org/1999/xlink" xlink:href="#a" transform="translate(886.15 538.14)scale(2.35)"/>
    <path fill="#666" d="M891.67 533.02h2.36v15.38h-2.36zm1.2-2.57a1.7 1.7 0 0 1-1.2-.47 1.5 1.5 0 0 1-.48-1.13q0-.66.49-1.13a1.67 1.67 0 0 1 1.19-.47 1.65 1.65 0 0 1 1.18.47 1.5 1.5 0 0 1 .5 1.13 1.5 1.5 0 0 1-.5 1.13 1.65 1.65 0 0 1-1.18.47m11.7 24.04q-1.71 0-2.95-.44a6.23 6.23 0 0 1-3.34-2.65l1.88-1.32q.32.42.8.96.5.55 1.35.95.86.41 2.26.41 1.86 0 3.07-.9t1.21-2.82v-3.12h-.2q-.26.42-.74 1.04a4.2 4.2 0 0 1-1.36 1.09q-.88.47-2.38.47a6.4 6.4 0 0 1-3.35-.88q-1.47-.88-2.33-2.56-.85-1.69-.85-4.1 0-2.36.83-4.1.83-1.77 2.31-2.73a6.1 6.1 0 0 1 3.42-.97q1.5 0 2.39.5.9.49 1.36 1.12.48.62.74 1.02h.24v-2.44h2.29v15.82q0 1.98-.9 3.22a5.17 5.17 0 0 1-2.41 1.84 8.9 8.9 0 0 1-3.34.59m-.08-8.45q1.42 0 2.4-.65t1.5-1.88.5-2.92q0-1.66-.5-2.94a4.4 4.4 0 0 0-1.48-1.99q-.98-.72-2.42-.72-1.5 0-2.5.76a4.63 4.63 0 0 0-1.5 2.04 8 8 0 0 0-.49 2.85q0 1.6.5 2.83.51 1.23 1.5 1.93 1 .69 2.49.69m17.5 2.68q-2.22 0-3.84-.98a6.6 6.6 0 0 1-2.47-2.76q-.86-1.79-.86-4.15t.86-4.17a6.8 6.8 0 0 1 2.43-2.82q1.56-1.02 3.64-1.02 1.2 0 2.37.4 1.18.4 2.14 1.3t1.53 2.36q.57 1.48.57 3.63v1H916.5v-2.04h9.45a5.05 5.05 0 0 0-.51-2.32 4 4 0 0 0-1.47-1.62 4.1 4.1 0 0 0-2.22-.59q-1.41 0-2.44.7t-1.58 1.8a5.3 5.3 0 0 0-.55 2.39v1.36q0 1.74.6 2.95.61 1.2 1.7 1.83 1.08.63 2.51.63.93 0 1.68-.26a3.5 3.5 0 0 0 1.32-.8q.55-.54.85-1.34l2.28.63q-.36 1.16-1.21 2.05a5.9 5.9 0 0 1-2.1 1.36 7.8 7.8 0 0 1-2.82.48m12.33-9.57v9.25h-2.36v-15.38h2.28v2.4h.2q.54-1.17 1.64-1.88 1.1-.72 2.85-.72 1.56 0 2.73.64 1.17.63 1.82 1.92.65 1.28.65 3.25v9.77h-2.36v-9.61q0-1.81-.94-2.83t-2.59-1.02q-1.13 0-2.02.5-.88.48-1.39 1.42t-.51 2.29m20.38 9.57q-2.17 0-3.73-1.02a6.65 6.65 0 0 1-2.4-2.82q-.84-1.79-.84-4.1 0-2.34.86-4.13a6.8 6.8 0 0 1 2.42-2.81q1.57-1.02 3.65-1.02 1.62 0 2.92.6t2.14 1.68q.83 1.08 1.03 2.52h-2.37a3.64 3.64 0 0 0-1.2-1.86q-.92-.82-2.48-.82-1.38 0-2.42.72a4.7 4.7 0 0 0-1.62 2.02q-.57 1.29-.57 3.03 0 1.78.56 3.1.57 1.32 1.6 2.06 1.05.73 2.45.73.92 0 1.67-.32a3.43 3.43 0 0 0 2.01-2.37h2.37a5.4 5.4 0 0 1-1 2.46 5.5 5.5 0 0 1-2.07 1.72q-1.28.63-2.98.63m15.95 0q-2.22 0-3.84-.98a6.6 6.6 0 0 1-2.47-2.76q-.86-1.79-.86-4.15t.86-4.17a6.8 6.8 0 0 1 2.42-2.82q1.57-1.02 3.65-1.02 1.2 0 2.37.4t2.14 1.3q.96.9 1.53 2.36.57 1.48.57 3.63v1h-11.86v-2.05h9.45a5.05 5.05 0 0 0-.51-2.32 4 4 0 0 0-1.47-1.6 4.1 4.1 0 0 0-2.22-.6q-1.41 0-2.44.7t-1.58 1.8a5.3 5.3 0 0 0-.55 2.39v1.36q0 1.74.6 2.95.61 1.2 1.7 1.83 1.08.62 2.51.63.93 0 1.69-.26a3.5 3.5 0 0 0 1.3-.8q.56-.54.86-1.34l2.28.63q-.36 1.16-1.21 2.05a5.9 5.9 0 0 1-2.1 1.36 7.8 7.8 0 0 1-2.82.48M797.47 482.6h3.13v75.2h-3.13z"/>
  </g>
</svg>