<svg xmlns="http://www.w3.org/2000/svg" height="20" fill="none" viewBox="0 0 224 39"><path fill="#666" d="M35.512 14.185c-5.541-2.124-.97-10.255-8.59-10.049-9.313.252-23.906 14.92-22.415 24.45.74 4.718 4.42 2.737 6.149 3.425 1.147.454 2.505 2.504 3.972 2.83-6.491 3.738-14.83.179-14.624-7.833C.3 15.208 17.32-1.91 29.454.173c6.775 1.165 7.617 8.38 6.057 14.012"/><path fill="#666" d="m9 20.981 5.368 5.073c3.42 3.077 12.499 8.448 16.613 4.806 4.85-4.293-5.408-19.12-10.13-21.486l4.146-1.867c6.46 4.728 16.28 20.097 8.28 26.788-5.162 4.316-13.483.66-18.374-2.554C11.177 29.29 5.792 25.779 9 20.977zm5.633-19.253c-1.737.046-3.095 2.312-4.37 2.71-1.134.354-2.702-.614-4.408.666-1.847 1.385-1.216 7.998-4.759 9.645C-1.084 8.332.273.683 8.15.027c.608-.05 7.37.399 6.483 1.697z"/><path fill="#666" d="M27.607 20.981c2.908 4.825-2.363 10.338-6.752 5.94zM51.3 29.93H42V8.63h8.28q3.96 0 6.06 1.4 2.1 1.39 2.1 4.39 0 1.32-.54 2.29-.54.98-1.58 1.55-1.03.57-2.5.69v-.06q2.67.18 4.09 1.54 1.43 1.37 1.43 3.62 0 2.97-2.09 4.43-2.08 1.45-5.95 1.45m-4.74-9.18v5.46h4.53q1.65 0 2.66-.68 1-.67 1-2.02t-1-2.06q-1.01-.7-2.66-.7zm0-8.4v5.1h3.6q1.68 0 2.68-.66 1.01-.66 1.01-1.89 0-1.32-.97-1.94-.98-.61-2.72-.61zm20.49 17.58h-4.5V13.85h4.26l.15 4.68-.33-.09q.39-2.43 1.38-3.51t2.73-1.08h1.47v3.72h-1.47q-1.26 0-2.07.33t-1.22 1.05q-.4.72-.4 1.95zm14.34.36q-2.46 0-4.29-1.04-1.83-1.03-2.85-2.92t-1.02-4.44 1.02-4.43q1.02-1.87 2.85-2.92t4.29-1.05 4.29 1.05 2.85 2.92q1.02 1.88 1.02 4.43t-1.02 4.44-2.85 2.92q-1.83 1.04-4.29 1.04m0-3.45q1.68 0 2.61-1.31.93-1.3.93-3.64T84 18.24q-.93-1.3-2.61-1.3t-2.61 1.3q-.93 1.31-.93 3.65t.93 3.64q.93 1.31 2.61 1.31m18.15 3.09h-4.35l-4.77-16.08h4.53l2.76 10.89 2.97-10.89h3.66l2.97 10.89 2.79-10.89h4.53l-4.77 16.08h-4.38l-2.97-10.05zm23.73.36q-2.49 0-4.17-.71-1.68-.7-2.57-1.92-.88-1.21-1-2.8l4.56-.15q.21 1.14.96 1.77t2.22.63q1.2 0 1.87-.39.68-.39.68-1.2 0-.51-.24-.86-.24-.34-.95-.6-.7-.25-2.08-.46-2.55-.45-3.99-1.05t-2.04-1.56-.6-2.34q0-2.31 1.78-3.74 1.79-1.42 5.36-1.42 2.28 0 3.82.72 1.55.72 2.4 1.96.86 1.25 1.07 2.84l-4.53.18q-.09-.78-.47-1.34-.37-.55-.94-.87-.57-.31-1.38-.31-1.2 0-1.85.49-.64.5-.64 1.31 0 .6.28.97.29.38.95.62t1.77.39q2.58.36 4.09 1 1.52.65 2.18 1.61t.66 2.37q0 1.56-.9 2.64t-2.51 1.65q-1.6.57-3.79.57m17.19 0q-2.46 0-4.28-1.04-1.81-1.03-2.82-2.92-1-1.89-1-4.44t1-4.43q1.01-1.87 2.81-2.92t4.26-1.05q2.4 0 4.17 1.05t2.74 3q.98 1.95.98 4.65v.9h-11.31q.09 1.92 1.03 2.85.95.93 2.51.93 1.14 0 1.9-.48.77-.48 1.1-1.47l4.53.27q-.63 2.4-2.67 3.75t-4.95 1.35m-3.45-9.96h6.69q-.09-1.77-.98-2.64-.88-.87-2.29-.87t-2.33.91q-.91.92-1.09 2.6m18.57 9.6h-4.5V13.85h4.26l.15 4.68-.33-.09q.39-2.43 1.38-3.51t2.73-1.08h1.47v3.72h-1.47q-1.26 0-2.07.33t-1.22 1.05q-.4.72-.4 1.95zm23.67.48q-2.7 0-4.67-.99-1.96-.99-3.04-2.84-1.08-1.84-1.08-4.33V8.6h4.56v13.65q0 2.07 1.09 3.19 1.1 1.13 3.14 1.13t3.12-1.13q1.08-1.12 1.08-3.19V8.6h4.56v13.65q0 2.49-1.07 4.33-1.06 1.85-3.04 2.84t-4.65.99m19.38-.12q-2.49 0-4.17-.71-1.68-.7-2.57-1.92-.88-1.21-1-2.8l4.56-.15q.21 1.14.96 1.77t2.22.63q1.2 0 1.87-.39.68-.39.68-1.2 0-.51-.24-.86-.24-.34-.95-.6-.7-.25-2.08-.46-2.55-.45-3.99-1.05t-2.04-1.56-.6-2.34q0-2.31 1.78-3.74 1.79-1.42 5.36-1.42 2.28 0 3.82.72 1.55.72 2.4 1.96.86 1.25 1.07 2.84l-4.53.18q-.09-.78-.47-1.34-.37-.55-.94-.87-.57-.31-1.38-.31-1.2 0-1.85.49-.64.5-.64 1.31 0 .6.28.97.29.38.95.62t1.77.39q2.58.36 4.09 1 1.52.65 2.18 1.61t.66 2.37q0 1.56-.9 2.64t-2.51 1.65q-1.6.57-3.79.57m17.19 0q-2.46 0-4.28-1.04-1.81-1.03-2.82-2.92-1-1.89-1-4.44t1-4.43q1.01-1.87 2.81-2.92t4.26-1.05q2.4 0 4.17 1.05t2.74 3q.98 1.95.98 4.65v.9h-11.31q.09 1.92 1.03 2.85.95.93 2.51.93 1.14 0 1.9-.48.77-.48 1.1-1.47l4.53.27q-.63 2.4-2.67 3.75t-4.95 1.35m-3.45-9.96h6.69q-.09-1.77-.98-2.64-.88-.87-2.29-.87t-2.33.91q-.91.92-1.09 2.6"/></svg>