<svg xmlns="http://www.w3.org/2000/svg" fill="none" height="20" viewBox="0 0 249 39">
  <path fill="#666" d="M35.512 14.185c-5.541-2.124-.97-10.255-8.59-10.049-9.313.252-23.906 14.92-22.415 24.45.74 4.718 4.42 2.737 6.149 3.425 1.147.454 2.505 2.504 3.972 2.83-6.491 3.738-14.83.179-14.624-7.833C.3 15.208 17.32-1.91 29.454.173c6.775 1.165 7.617 8.38 6.057 14.012"/>
  <path fill="#666" d="m9 20.981 5.368 5.073c3.42 3.077 12.499 8.448 16.613 4.806 4.85-4.293-5.408-19.12-10.13-21.486l4.146-1.867c6.46 4.728 16.28 20.097 8.28 26.788-5.162 4.316-13.483.66-18.374-2.554C11.177 29.29 5.792 25.779 9 20.977zm5.633-19.253c-1.737.046-3.095 2.312-4.37 2.71-1.134.354-2.702-.614-4.408.666-1.847 1.385-1.216 7.998-4.759 9.645C-1.084 8.332.273.683 8.15.027c.608-.05 7.37.399 6.483 1.697z"/>
  <path fill="#666" d="M27.607 20.981c2.908 4.825-2.363 10.338-6.752 5.94zm39.659 2.894q0 3.27-2.332 4.657-2.317 1.386-5.959 1.386H52.52V9.078h6.079q3.43 0 5.597 1.236t2.167 4.068q0 1.809-1.083 2.954-1.084 1.144-2.754 1.552 2.017.316 3.37 1.492 1.37 1.175 1.37 3.495m-5.071-9.131q0-1.386-.873-2.02-.858-.632-2.603-.632h-2.076v5.5H58.9q1.7 0 2.498-.678.797-.679.797-2.17m.798 9.026q0-1.793-.994-2.532-.993-.738-2.798-.738h-2.558v6.329h2.377q1.776 0 2.874-.648 1.1-.663 1.099-2.411m19.57-10.247q.724 0 1.31.12.601.107 1.189.317l-.707 6.224h-2.649v-3.12q-1.519.12-2.663 1.372-1.129 1.251-1.79 3.39v5.334h3.174v2.758h-9.389V27.16h2.242V16.703h-2.242V13.96h5.267l.737 3.662q.888-2.064 2.212-3.074 1.338-1.025 3.31-1.025m12.997-.015q2.347 0 4.017 1.04 1.671 1.025 2.528 2.923.873 1.884.873 4.43 0 2.592-.873 4.506-.872 1.899-2.558 2.938-1.67 1.025-4.002 1.025-2.347 0-4.018-1.01t-2.542-2.908q-.873-1.9-.873-4.52 0-2.502.873-4.4.887-1.914 2.558-2.969 1.685-1.055 4.017-1.055m0 2.999q-1.685 0-2.498 1.326-.812 1.31-.812 4.099 0 2.817.812 4.128t2.483 1.311q1.669 0 2.483-1.31.812-1.327.812-4.16 0-2.757-.812-4.068-.813-1.326-2.468-1.326m26.809-2.547-2.438 15.958h-4.664l-1.61-11.075-1.715 11.075h-4.575l-2.543-15.958h3.732l1.384 13.487 1.971-11.467h3.657l1.805 11.467 1.415-13.487zm8.738 13.472q1.43 0 2.257-.483.842-.496.843-1.386 0-.617-.287-1.01-.285-.39-1.098-.738-.798-.36-2.423-.799-1.655-.42-2.768-.994-1.113-.588-1.731-1.507-.617-.934-.617-2.29 0-1.386.783-2.456.798-1.07 2.287-1.658 1.505-.603 3.551-.603 3.642 0 6.214 1.869l-1.624 2.426q-2.182-1.386-4.5-1.387-2.678 0-2.678 1.537 0 .528.316.874.331.347 1.129.663.812.318 2.482.784 1.716.483 2.799 1.055 1.098.572 1.7 1.522.617.949.618 2.426 0 1.657-.994 2.818-.977 1.145-2.618 1.717-1.64.558-3.626.558-2.168 0-3.867-.618-1.701-.618-2.934-1.703l2.061-2.32q.978.783 2.182 1.25 1.203.453 2.543.453m15.373-4.28q.165 2.155 1.263 3.195 1.115 1.04 2.845 1.04a6.4 6.4 0 0 0 2.106-.347 9 9 0 0 0 2.031-1.025l1.655 2.275a8.7 8.7 0 0 1-2.708 1.537q-1.55.543-3.34.543-2.542 0-4.333-1.055a6.8 6.8 0 0 1-2.694-2.953q-.903-1.9-.903-4.4 0-2.396.888-4.31.903-1.929 2.588-3.029 1.7-1.115 4.002-1.115 2.166 0 3.777.965 1.61.964 2.483 2.787.873 1.808.873 4.31 0 .86-.075 1.582zm3.416-6.841q-1.49 0-2.407 1.07-.904 1.055-1.054 3.224h6.711q-.03-2.064-.857-3.179-.815-1.115-2.393-1.115m22.926-2.788q.723 0 1.31.12.602.107 1.188.317l-.707 6.224h-2.648v-3.12q-1.52.12-2.664 1.372-1.127 1.251-1.79 3.39v5.334h3.175v2.758h-9.39V27.16h2.242V16.703h-2.242V13.96h5.267l.738 3.662q.887-2.064 2.211-3.074 1.34-1.025 3.31-1.025m38.481 9.494q0 2.154-.872 3.827-.858 1.657-2.543 2.592-1.685.934-4.048.934-2.392 0-4.063-.92a6.07 6.07 0 0 1-2.527-2.576q-.844-1.657-.843-3.857V9.078h4.123v12.778q0 1.839.316 2.999.315 1.16 1.039 1.748.721.587 1.955.587t1.956-.587q.737-.588 1.054-1.748.316-1.16.316-2.999V9.078h4.137zm10.062 4.415q1.43 0 2.257-.483.843-.496.843-1.386 0-.617-.286-1.01-.287-.39-1.098-.738-.798-.36-2.423-.799-1.655-.42-2.769-.994-1.113-.588-1.73-1.507-.617-.934-.617-2.29 0-1.386.783-2.456.797-1.07 2.287-1.658 1.505-.603 3.55-.603 3.643 0 6.215 1.869l-1.626 2.426q-2.18-1.386-4.498-1.387-2.679 0-2.678 1.537 0 .528.316.874.33.347 1.128.663.813.318 2.483.784 1.714.483 2.799 1.055 1.098.572 1.7 1.522.616.949.616 2.426 0 1.657-.992 2.818-.978 1.145-2.618 1.717-1.64.558-3.626.558-2.168 0-3.868-.618t-2.934-1.703l2.062-2.32q.978.783 2.182 1.25a7.2 7.2 0 0 0 2.542.453m15.373-4.28q.166 2.155 1.264 3.195 1.114 1.04 2.844 1.04 1.099 0 2.107-.347a9 9 0 0 0 2.031-1.025l1.655 2.275a8.7 8.7 0 0 1-2.708 1.537q-1.55.543-3.34.543-2.543 0-4.334-1.055a6.8 6.8 0 0 1-2.693-2.953q-.903-1.9-.903-4.4 0-2.396.888-4.31.904-1.929 2.587-3.029 1.7-1.115 4.003-1.115 2.166 0 3.777.965 1.61.964 2.483 2.787.873 1.808.872 4.31 0 .86-.076 1.582zm3.416-6.841q-1.49 0-2.408 1.07-.902 1.055-1.052 3.224h6.71q-.03-2.064-.858-3.179-.812-1.115-2.392-1.115"/>
</svg>