<svg xmlns="http://www.w3.org/2000/svg" height="20" viewBox="0 0 309 93"><g fill="#666"><path fill-rule="evenodd" d="M31.527 4.343 12.677 15.12A22.55 22.55 0 0 0 1.343 34.693v23.164a22.55 22.55 0 0 0 10.733 19.21l19.256 11.83a22.55 22.55 0 0 0 23.374.151l20.083-12.01a22.55 22.55 0 0 0 10.988-19.362v-21.51a22.55 22.55 0 0 0-10.973-19.362L54.3 4.554a22.55 22.55 0 0 0-22.773-.211m12.687 17.151-7.651 4.42a12.03 12.03 0 0 0-5.998 10.417v9.861a12.03 12.03 0 0 0 5.682 10.207l7.862 4.885a12.03 12.03 0 0 0 12.567.075l8.237-4.975a12.03 12.03 0 0 0 5.817-10.297v-9.065a12.03 12.03 0 0 0-5.817-10.296l-8.463-5.111a12.03 12.03 0 0 0-12.236-.12" clip-rule="evenodd"/><path d="M120.18 70.71h-7.63q-5.53 0-8.54-2.94T101 59.3V37.11q0-5.53 3.01-8.47t8.54-2.94h7.63q5.46 0 8.51 2.98 3.04 2.97 3.04 8.43v3.29q0 1.54-1.54 1.54h-5.88q-1.47 0-1.47-1.54v-2.87q0-2.24-.95-3.18-.94-.95-3.18-.95h-4.76q-2.17 0-3.11.95-.95.94-.95 3.18v21.35q0 2.24.95 3.19.94.94 3.11.94h4.76q2.24 0 3.18-.94.95-.95.95-3.19v-2.87q0-1.54 1.47-1.54h5.88q1.54 0 1.54 1.54v3.29q0 5.46-3.04 8.44-3.05 2.97-8.51 2.97m35.56 0h-6.23q-5.53 0-8.54-2.94t-3.01-8.47V46.42q0-5.53 3.01-8.47t8.54-2.94h6.23q5.46 0 8.51 2.98 3.04 2.97 3.04 8.43V59.3q0 5.46-3.04 8.44-3.05 2.97-8.51 2.97m-4.9-7.63h3.57q2.24 0 3.19-.91.94-.91.94-3.15V46.7q0-2.24-.94-3.15-.95-.91-3.19-.91h-3.57q-2.24 0-3.15.91t-.91 3.15v12.32q0 2.24.91 3.15t3.15.91m30.87 7.63h-5.95q-1.47 0-1.47-1.47V36.48q0-1.47 1.47-1.47h5.95q1.47 0 1.47 1.47v2.38h.28q.77-1.89 2.73-2.87t4.13-.98h2.52q1.4 0 1.4 1.47v4.83q0 .84-.32 1.16-.31.31-1.08.24h-4.83q-4.83 0-4.83 5.46v21.07q0 1.47-1.47 1.47m43.33 0h-15.47q-5.53 0-8.54-2.94t-3.01-8.47V46.42q0-5.53 3.01-8.47t8.54-2.94h5.53q5.53 0 8.54 2.94t3.01 8.47v8.89q0 1.47-1.47 1.47h-17.57q-.84 0-.84.77v1.54q0 2.17.95 3.12.94.94 3.18.94h14.14q1.47 0 1.47 1.54v4.62q0 .77-.31 1.09-.32.31-1.16.31m-17.43-19.88h9.52q.77 0 .77-.77V46.7q0-2.24-.91-3.15t-3.15-.91h-2.94q-2.24 0-3.15.91t-.91 3.15v3.36q0 .77.77.77m24.15-15.82h6.16q1.4 0 1.68 1.47l6.02 26.32h.49l5.88-26.32q.28-1.47 1.75-1.47h6.16q1.47 0 1.05 1.47l-8.82 32.69q-.28 1.54-1.89 1.54h-8.89q-1.47 0-1.89-1.54l-8.75-32.69q-.42-1.47 1.05-1.47m34.65-6.02V22.9q0-1.4 1.4-1.4h6.09q1.4 0 1.4 1.33v6.16q0 1.4-1.4 1.4h-6.09q-1.4 0-1.4-1.4m0 40.25V36.48q0-1.47 1.4-1.47h6.02q1.47 0 1.47 1.47v32.76q0 .91-.31 1.19-.32.28-1.09.28h-6.02q-1.47 0-1.47-1.47m15.26 0v-2.31q0-2.38 1.33-4.06l14.84-19.95v-.28h-14.07q-1.47 0-1.47-1.54v-4.62q0-1.47 1.47-1.47h22.82q1.47 0 1.47 1.47v4.2q0 2.24-1.12 3.64L293.22 62.8v.28h14.14q1.47 0 1.47 1.54v4.62q0 1.47-1.47 1.47h-24.22q-1.47 0-1.47-1.47"/></g></svg>