<svg xmlns="http://www.w3.org/2000/svg" height="20" viewBox="0 0 320 100">
  <path fill="#666" fill-rule="evenodd" d="M36.527 7.843 17.677 18.62A22.55 22.55 0 0 0 6.343 38.193v23.164a22.55 22.55 0 0 0 10.733 19.21l19.256 11.83a22.55 22.55 0 0 0 23.374.151l20.083-12.01a22.55 22.55 0 0 0 10.988-19.362v-21.51a22.55 22.55 0 0 0-10.973-19.362L59.3 8.054a22.55 22.55 0 0 0-22.773-.211m12.687 17.151-7.651 4.42a12.03 12.03 0 0 0-5.998 10.417v9.861a12.03 12.03 0 0 0 5.682 10.207l7.862 4.885a12.03 12.03 0 0 0 12.567.075l8.237-4.975a12.03 12.03 0 0 0 5.817-10.297v-9.065a12.03 12.03 0 0 0-5.817-10.296l-8.463-5.111a12.03 12.03 0 0 0-12.236-.12" clip-rule="evenodd"/>
  <path fill="#666" d="m17.677 18.62.751 1.309zm18.85-10.777-.752-1.308zM17.076 80.568l.796-1.278zm19.256 11.83.781-1.278zm23.374.15-.766-1.293zm20.098-12.01-.782-1.293zm0-60.234-.782 1.293zM59.3 8.054l.767-1.293zm-17.737 21.36-.752-1.293zm7.651-4.42-.752-1.292zM41.247 59.9l-.797 1.277zm7.862 4.885-.797 1.278zm12.567.075-.782-1.277zm8.237-4.975-.767-1.293zm0-29.658.782-1.293zm-8.463-5.111-.767 1.277zM17.677 18.62l.751 1.308L37.264 9.15l-.737-1.308-.752-1.308L16.94 17.328zM6.343 38.193h1.503a21.05 21.05 0 0 1 10.582-18.264l-.736-1.308-.752-1.293a24.05 24.05 0 0 0-12.1 20.865zm0 23.164h1.503V38.193H4.84v23.164zm10.733 19.21.796-1.277A21.05 21.05 0 0 1 7.846 61.357H4.84a24.05 24.05 0 0 0 11.454 20.488zm19.256 11.83.781-1.277-19.24-11.83-.797 1.278-.782 1.277 19.24 11.83zm23.374.151-.766-1.293a21.05 21.05 0 0 1-21.827-.135l-.781 1.278-.797 1.278a24.05 24.05 0 0 0 24.938.15zm20.098-12.01-.782-1.293-20.082 12.01.766 1.293.767 1.278L80.571 81.83zm10.973-19.362h-1.503a21.05 21.05 0 0 1-10.252 18.069l.782 1.293.767 1.277a24.05 24.05 0 0 0 11.71-20.639zm0-21.525h-1.503v21.525h3.007v-21.51zM79.79 20.304l-.767 1.293a21.05 21.05 0 0 1 10.252 18.069h3.007a24.05 24.05 0 0 0-11.71-20.654zM59.3 8.054l-.781 1.292 20.503 12.251.767-1.293.782-1.292L60.067 6.76zm-22.773-.211.737 1.308a21.05 21.05 0 0 1 21.255.195l.781-1.293.767-1.292a24.05 24.05 0 0 0-24.292-.226zm5.036 21.57.751 1.309 7.652-4.42-.752-1.308-.752-1.292-7.65 4.42zm-5.998 10.418h1.503a10.52 10.52 0 0 1 5.246-9.11l-.751-1.307-.752-1.293a13.53 13.53 0 0 0-6.75 11.71zm0 9.861h1.503v-9.861h-3.006v9.861zm5.682 10.207.797-1.278a10.52 10.52 0 0 1-4.976-8.929h-3.006a13.53 13.53 0 0 0 6.388 11.484zm7.862 4.885.796-1.278-7.861-4.885-.797 1.278-.797 1.277 7.862 4.886zm12.567.075-.782-1.277a10.52 10.52 0 0 1-10.989-.076l-.796 1.278-.797 1.278a13.53 13.53 0 0 0 14.145.09zm8.237-4.975-.767-1.293-8.252 4.99.782 1.278.781 1.293 8.238-4.976zm5.817-10.297h-1.503a10.52 10.52 0 0 1-5.08 9.004l.766 1.293.782 1.292a13.53 13.53 0 0 0 6.539-11.59zm0-9.065h-1.503v9.065h3.007v-9.065zm-5.817-10.296-.767 1.277a10.52 10.52 0 0 1 5.081 9.02h3.007a13.53 13.53 0 0 0-6.54-11.59zm-8.463-5.111-.767 1.277 8.463 5.111.767-1.277.782-1.293-8.463-5.111zm-12.236-.12.752 1.307a10.52 10.52 0 0 1 10.702.09l.782-1.277.782-1.293a13.53 13.53 0 0 0-13.77-.12z"/>
  <text fill="#666" xml:space="preserve" x="210" y="80" font-family="Fantasy" font-size="70" letter-spacing="0" text-anchor="middle">Coreviz</text>
</svg>