<svg xmlns="http://www.w3.org/2000/svg" height="20" fill="none" viewBox="0 0 219 48"><path fill="#666" fill-rule="evenodd" d="m39.873 24.108-4.215 4.261-4.087-4.132-8.504 8.598L27.1 36.91l-4.016 4.06 4.397 4.445 16.734-16.918z" clip-rule="evenodd"/><path fill="#666" fill-rule="evenodd" d="m6.624 23.774-4.687 4.739L18.67 45.43l4.412-4.461-4.031-4.076 4.016-4.06-8.556-8.649-3.74 3.782zM27.353 2.93l-3.939 3.982 4.092 4.137-4.49 4.538 8.556 8.65 4.214-4.26 4.087 4.131 4.214-4.26z" clip-rule="evenodd"/><path fill="#666" fill-rule="evenodd" d="M19.077 2.528 2.343 19.446l4.28 4.328 3.741-3.782 4.147 4.193 8.505-8.598-4.092-4.136 4.49-4.539z" clip-rule="evenodd"/><path fill="#999" fill-rule="evenodd" d="m23.068 32.834-4.016 4.06 4.03 4.075 4.017-4.06zm12.718-12.857-4.215 4.26 4.087 4.132 4.215-4.26zm-25.421.015-3.74 3.782 4.147 4.193 3.74-3.782zM23.414 6.913l-4.49 4.538 4.092 4.137 4.49-4.538z" clip-rule="evenodd"/><path fill="#aaa" fill-rule="evenodd" d="M18.8 11.35c-2.341-2.368-2.341-6.207 0-8.574a5.95 5.95 0 0 1 8.48 0c2.343 2.367 2.343 6.206 0 8.573a5.95 5.95 0 0 1-8.48 0m25.436 17.186a5.95 5.95 0 0 1-8.48 0c-2.342-2.368-2.342-6.206 0-8.574a5.95 5.95 0 0 1 8.48 0c2.342 2.368 2.342 6.206 0 8.574M18.802 45.678c-2.341-2.367-2.341-6.206 0-8.573a5.95 5.95 0 0 1 8.48 0c2.343 2.367 2.343 6.206 0 8.573a5.95 5.95 0 0 1-8.48 0M1.85 28.48c-2.343-2.367-2.343-6.206 0-8.573a5.95 5.95 0 0 1 8.48 0c2.341 2.367 2.341 6.206 0 8.573a5.95 5.95 0 0 1-8.48 0" clip-rule="evenodd"/><path fill="#666" fill-rule="evenodd" d="M76.282 29.994h-3.187a.705.705 0 0 1-.698-.705h-.001v-11.16c0-.388.312-.705.697-.705h3.21c.2 0 .363-.165.363-.367v-3.11a.366.366 0 0 0-.364-.367H64.366a.366.366 0 0 0-.364.367v3.11c0 .202.163.367.364.367h3.383c.383 0 .697.317.697.705V29.31a.7.7 0 0 1-.696.684h-3.375a.37.37 0 0 0-.363.368v3.109c0 .203.165.368.365.368h4.335c.032.009.064.02.098.02h3.221c.035 0 .066-.011.098-.02h4.153a.365.365 0 0 0 .363-.368V30.36a.366.366 0 0 0-.364-.367M96.769 13.58h-12.63a.366.366 0 0 0-.364.367v3.11c0 .202.161.367.362.367h3.718c.383 0 .697.317.697.705v15.362c0 .202.164.368.365.368h3.22a.367.367 0 0 0 .365-.369V18.13c0-.39.313-.706.697-.706h3.57a.367.367 0 0 0 .365-.367v-3.11a.37.37 0 0 0-.365-.367m18.676 0h-10.987a.375.375 0 0 0-.369.373v19.532c0 .207.165.375.369.375h10.987a.375.375 0 0 0 .371-.375V30.39a.37.37 0 0 0-.37-.375h-6.706a.705.705 0 0 1-.703-.711V26.09c0-.392.315-.711.705-.711h6.144a.375.375 0 0 0 .37-.375V22.2a.373.373 0 0 0-.37-.375h-6.145a.705.705 0 0 1-.704-.71v-2.98c0-.392.315-.711.705-.711h6.705a.375.375 0 0 0 .369-.375v-3.096a.373.373 0 0 0-.37-.375m16.794 8.706c-.563.516-1.301.78-2.195.78h-1.594a.705.705 0 0 1-.7-.708v-4.225a.705.705 0 0 1 .7-.705h1.594c.893 0 1.632.267 2.196.795.567.532.855 1.213.855 2.023 0 .831-.288 1.518-.857 2.04m1.637 4.559a.705.705 0 0 1 .24-.959 6 6 0 0 0 2.107-2.146 6.9 6.9 0 0 0 .91-3.495 6.75 6.75 0 0 0-.839-3.261 6.45 6.45 0 0 0-2.4-2.468c-1.038-.621-2.255-.934-3.617-.934h-6.109a.37.37 0 0 0-.366.369v19.54c0 .204.165.37.366.37h3.217a.367.367 0 0 0 .366-.37v-5.902a.705.705 0 0 1 .7-.707h.95c.261 0 .5.144.62.378l3.315 6.404a.36.36 0 0 0 .324.198h3.643a.37.37 0 0 0 .315-.555zm20.523-.179a.7.7 0 0 1-.574.297H150.8a.705.705 0 0 1-.665-.939l1.512-4.269a.7.7 0 0 1 .665-.468c.301 0 .562.183.663.468l1.512 4.269a.7.7 0 0 1-.089.642m6.621 7.195c.125 0 .236-.06.306-.163a.36.36 0 0 0 .038-.345l-7.731-19.539a.38.38 0 0 0-.345-.234h-1.98a.36.36 0 0 0-.344.234l-7.731 19.54a.36.36 0 0 0 .038.345.36.36 0 0 0 .306.162h3.522a.375.375 0 0 0 .348-.246l.969-2.7a.705.705 0 0 1 .663-.465h6.495a.705.705 0 0 1 .664.471l.942 2.691a.375.375 0 0 0 .35.25zm10.681-8.083c0-.333.269-.606.599-.606h2.656c.797 0 1.452.234 1.947.693a2.25 2.25 0 0 1 .753 1.715 2.36 2.36 0 0 1-.735 1.756c-.488.471-1.147.71-1.965.71h-2.62a.64.64 0 0 1-.635-.642zm0-7.74c0-.337.27-.612.603-.612h1.749c.774 0 1.395.203 1.844.603q.57.51.664 1.292a2.2 2.2 0 0 1-.661 1.875c-.47.439-1.101.661-1.877.661h-1.723a.6.6 0 0 1-.599-.606zm-3.558 15.824h7.57c1.304 0 2.438-.277 3.37-.818a5.55 5.55 0 0 0 2.12-2.13 5.76 5.76 0 0 0 .724-2.805c0-1.139-.276-2.154-.82-3.015a5.55 5.55 0 0 0-2.216-1.994.21.21 0 0 1-.11-.159l-.01-.09.079-.088c1.152-.998 1.737-2.289 1.737-3.843 0-.966-.223-1.865-.664-2.672-.44-.802-1.118-1.452-2.016-1.935-.903-.486-2.024-.732-3.33-.732h-6.423a.405.405 0 0 0-.402.405v19.481c0 .217.175.396.391.396m31.154-.001a.375.375 0 0 0 .37-.376V30.39a.375.375 0 0 0-.37-.375h-5.714a.705.705 0 0 1-.703-.711V13.953a.375.375 0 0 0-.371-.375H189.3a.375.375 0 0 0-.371.375v19.532c0 .206.167.374.37.374zm18.696-3.846h-6.707a.705.705 0 0 1-.702-.711v-3.218a.705.705 0 0 1 .702-.71h6.147a.37.37 0 0 0 .369-.373V22.2a.37.37 0 0 0-.369-.372h-6.147a.705.705 0 0 1-.702-.711v-2.982a.705.705 0 0 1 .702-.71h6.707a.37.37 0 0 0 .369-.372V13.95a.37.37 0 0 0-.37-.372h-10.989a.37.37 0 0 0-.369.372v19.535a.37.37 0 0 0 .37.372h10.989a.37.37 0 0 0 .369-.372v-3.1a.37.37 0 0 0-.37-.373" clip-rule="evenodd"/></svg>