<svg xmlns="http://www.w3.org/2000/svg" height="20" fill="none" viewBox="0 0 130 22"><path fill="#666" d="M5 12.3a4.5 4.5 0 1 1 0 9 4.5 4.5 0 0 1 0-9M10.9.7a4.5 4.5 0 0 1 4.4 5.4c-.3 1.4-.6 3 .2 4.2l1.3 1.9.3.2.3-.2 1.3-1.9c.8-1.2.5-2.7.2-4.1a4.5 4.5 0 1 1 8.8.1c-.3 1.3-.6 2.7 0 3.9l1.3 2v.1a4.5 4.5 0 1 1-4.3 3.4c.3-1.3.6-2.7 0-3.9l-1.2-2h-.2L22 11.5c-.8 1.2-.5 2.8-.2 4.2a4.5 4.5 0 1 1-8.8.3q.5-2-.4-3.8l-.9-1.3q-.9-1.2-2.4-1.6A4.5 4.5 0 0 1 10.9.6M56.6 17v-6.9q0-1-.7-1.7t-1.7-.7q-1.3 0-2.1 1T51 11v6h-2.8V5.6h2.9v2.2q.6-1 1.6-1.8 1-.6 2.5-.7 1.2 0 2.3.7T59 7.8q.6-1.2 1.7-1.8a5 5 0 0 1 2.5-.7q2 0 3.1 1.2 1.3 1.2 1.3 3.2V17h-3v-6.6q0-1.4-.6-2t-1.7-.7q-1.2 0-2.1.9t-.9 2.3V17zm18.6.3q-1.5 0-3-.7a6 6 0 0 1-2-2.2q-.7-1.5-.7-3 0-1.8.7-3.2a6 6 0 0 1 5-3q1.4 0 2.6.7t1.8 1.6V5.6h3V17h-3v-2q-.6 1.2-1.8 1.8-1.2.5-2.6.5M76 15q1.6 0 2.6-1t1-2.7-1-2.7-2.6-1-2.6 1-1 2.7 1 2.7 2.6 1m14 2.3a7 7 0 0 1-4.1-1q-1.5-1.2-1.6-3L87 13q0 1 .8 1.6t2.2.7a3 3 0 0 0 1.7-.5q.7-.4.7-1a1 1 0 0 0-.6-1l-1.4-.6-3.8-.9q-.8-.3-1.4-.9t-.6-1.7q0-1.6 1.4-2.6t3.8-1 3.6 1A3 3 0 0 1 95 8.6l-2.8.1q0-.6-.6-1.2T89.8 7q-1 0-1.7.4t-.6 1 .6 1l1.5.4 3.7.9q.8.3 1.5 1 .5.6.5 1.7 0 1.8-1.4 2.8-1.5 1-4 1m12.6 0q-1.9 0-3-1a4 4 0 0 1-1.2-2.8V7.7h-2.5V5.5h2.5V2.2h2.9v3.4h3.7v2.2h-3.7V13q0 1 .4 1.4.5.5 1.3.5l1-.2.9-.6.4 2.4q-.3.3-1.1.5-.7.2-1.6.2m4.3-.3V5.6h2.9V8q.5-1.2 1.5-2a4 4 0 0 1 4.2-.4l-.3 2.8-.9-.4-1-.2-1 .2q-.7.2-1.2.6t-1 1.2q-.3.7-.3 2V17zm14.7.3q-1.6 0-3-.7a6 6 0 0 1-2-2.2q-.8-1.5-.8-3 0-1.8.7-3.2a6 6 0 0 1 5-3q1.5 0 2.6.7t1.9 1.6V5.5h2.9V17h-3v-2q-.6 1.2-1.8 1.8-1.1.5-2.5.5m.7-2.3q1.6 0 2.6-1t1-2.7-1-2.7-2.6-1-2.6 1-1 2.7 1 2.7 2.6 1"/></svg>