<svg xmlns="http://www.w3.org/2000/svg" fill="none" class="sbui-icon" viewBox="0 0 16 16"><path fill="currentColor" fill-rule="evenodd" d="M13.545 3.01A13.2 13.2 0 0 0 10.288 2a.05.05 0 0 0-.052.026c-.141.25-.297.576-.406.833a12.2 12.2 0 0 0-3.658 0 8 8 0 0 0-.412-.833A.05.05 0 0 0 5.708 2a13.2 13.2 0 0 0-3.257 1.01.05.05 0 0 0-.021.018C.356 6.13-.213 9.151.066 12.136q.003.024.02.038a13.3 13.3 0 0 0 3.996 2.02.05.05 0 0 0 .056-.02q.463-.63.818-1.329a.05.05 0 0 0-.028-.07 9 9 0 0 1-1.248-.595.05.05 0 0 1-.005-.085q.127-.095.248-.194a.05.05 0 0 1 .051-.007c2.619 1.195 5.454 1.195 8.041 0a.05.05 0 0 1 .053.006q.121.1.248.195a.05.05 0 0 1-.004.085q-.597.349-1.249.594a.05.05 0 0 0-.027.071c.24.466.515.909.817 1.33a.05.05 0 0 0 .056.018 13.2 13.2 0 0 0 4.001-2.02.05.05 0 0 0 .021-.036c.334-3.451-.559-6.45-2.365-9.107a.04.04 0 0 0-.021-.02M5.347 10.32c-.789 0-1.438-.724-1.438-1.613s.637-1.613 1.438-1.613c.807 0 1.45.73 1.438 1.613 0 .889-.637 1.613-1.438 1.613m5.316 0c-.788 0-1.438-.724-1.438-1.613s.637-1.613 1.438-1.613c.807 0 1.45.73 1.438 1.613 0 .889-.63 1.613-1.438 1.613" clip-rule="evenodd"/></svg>
