<svg xmlns="http://www.w3.org/2000/svg" width="341.333" height="341.333" viewBox="0 0 256 256"><path d="M16 128v112h224V16H16zm72.2-67.9c1.6.9 1.8 2 1.6 7.2l-.3 6.2-8.1.3c-11.2.4-12.5 1.7-13.2 14.1l-.5 9.1h5.9c3.3 0 7.6.3 9.7.6l3.7.7v13.6l-3.2.6c-1.8.3-6 .6-9.3.8l-6 .2-.3 41.8L68 197H48v-83.9l-7.7-.3-7.8-.3-.3-7.1-.3-7.1 3.8-.7c2.1-.3 5.7-.6 7.9-.6h4.1l.5-11.3c.4-10.1.7-11.9 3.1-15.9 4.8-8.2 14.5-12.2 27.6-11.2 4.1.3 8.3 1 9.3 1.5m19.3 37.8c2.7.6 3.2 1.2 4.6 7.1 1 3.6 2.7 10.1 3.9 14.5s3 11.1 4 15c5 19.3 9.5 34.5 10.1 34.5.4 0 1-1.5 1.4-3.3.4-1.7 2.4-10.4 4.5-19.2s5-21.2 6.5-27.5c4.9-20.6 4.8-20.3 8.6-21.3 3.9-1 16.6-.4 17.9.9.5.5 3.8 13 7.5 27.9 8.8 36 10.6 42.5 11.5 42.5.4 0 1-1.2 1.3-2.8 1.2-6.9 17.8-66.7 18.7-67.6 1.2-1.2 18.4-1.5 19.6-.4.4.4 0 2.7-.9 5-.9 2.4-2.2 6.5-3.1 9.3-.8 2.7-5.1 16.7-9.6 31s-9 28.7-10 32-2.9 9.4-4.2 13.5l-2.4 7.5-10.6.3-10.6.3-2-7.8c-1.1-4.3-4.8-19.1-8.2-32.8-7.5-30.5-6.9-28.4-8-26.4-.5.8-4.3 15.2-8.5 32-4.1 16.7-7.8 31.4-8.1 32.6-.6 2.2-1.1 2.3-11.4 2.3h-10.8l-1.1-3.2c-.5-1.8-4.2-13.7-8.1-26.3-4-12.7-10.3-32.9-14.1-45S89 100 89 99.3c0-.6 1-1.4 2.3-1.6 3.3-.6 12.8-.5 16.2.2"/><style>@media (prefers-color-scheme:dark){:root{filter:invert(100%)}}</style></svg>
