<svg xmlns="http://www.w3.org/2000/svg" width="176" height="162" fill="none" viewBox="0 0 176 162"><path fill="#ffcd00" stroke="#636363" stroke-opacity=".2" stroke-width=".5" d="M15 1h32v32H15zM143 1h32v32h-32z"/><path fill="#ffa400" stroke="#636363" stroke-opacity=".2" stroke-width=".5" d="M15 33h32v32H15zM47 33h32v32H47zM111 33h32v32h-32zM143 33h32v32h-32z"/><path fill="#ff7100" stroke="#636363" stroke-opacity=".2" stroke-width=".5" d="M15 65h32v32H15zM47 65h32v32H47zM79 65h32v32H79zM111 65h32v32h-32zM143 65h32v32h-32z"/><path fill="#ff4902" stroke="#636363" stroke-opacity=".2" stroke-width=".5" d="M15 97h32v32H15zM79 97h32v32H79zM143 97h32v32h-32z"/><path fill="#ff0006" stroke="#636363" stroke-opacity=".2" stroke-width=".5" d="M15 129h32v32H15zM143 129h32v32h-32z"/><path fill="#000" d="M0 1h16v160H0zM63 97h16v32H63zM95 33h16v32H95zM127 1h16v32h-16zM127 97h16v64h-16z"/></svg>
